<svg width="24" height="24" viewBox="0 0 24 24" fill="none" xmlns="http://www.w3.org/2000/svg">
  <path d="M19 7C19 10.866 15.866 14 12 14C8.13401 14 5 10.866 5 7C5 3.13401 8.13401 0 12 0C15.866 0 19 3.13401 19 7Z" fill="currentColor"/>
  <ellipse cx="12" cy="18" rx="8" ry="3" fill="currentColor"/>
  <circle cx="9" cy="6" r="1" fill="white"/>
  <circle cx="15" cy="6" r="1" fill="white"/>
  <path d="M12 8C12.5523 8 13 8.44772 13 9C13 9.55228 12.5523 10 12 10C11.4477 10 11 9.55228 11 9C11 8.44772 11.4477 8 12 8Z" fill="white"/>
  <rect x="11" y="12" width="2" height="4" fill="currentColor"/>
</svg> 